<svg
 xmlns="http://www.w3.org/2000/svg"
 xmlns:xlink="http://www.w3.org/1999/xlink"
 width="30px" height="30px">
<path fill-rule="evenodd"  fill="rgb(255, 215, 0)"
 d="M28.652,25.237 L29.958,29.958 L25.237,28.652 C23.746,29.535 22.048,30.000 20.303,30.000 C15.930,30.000 12.109,27.053 10.958,22.898 C9.075,22.817 7.250,22.278 5.633,21.322 L0.042,22.868 L1.588,17.277 C0.548,15.518 0.000,13.514 0.000,11.455 C0.000,5.139 5.139,-0.000 11.455,-0.000 C17.605,-0.000 22.638,4.872 22.899,10.958 C27.054,12.109 30.000,15.930 30.000,20.303 C30.000,22.048 29.535,23.746 28.652,25.237 ZM11.455,1.758 C6.108,1.758 1.758,6.108 1.758,11.455 C1.758,13.311 2.284,15.114 3.278,16.670 L3.489,17.000 L2.563,20.347 L5.910,19.421 L6.240,19.632 C7.796,20.627 9.599,21.152 11.455,21.152 C16.802,21.152 21.152,16.802 21.152,11.455 C21.152,6.108 16.802,1.758 11.455,1.758 ZM22.834,12.776 C22.227,18.039 18.039,22.227 12.776,22.833 C13.846,26.020 16.866,28.242 20.303,28.242 C21.842,28.242 23.336,27.801 24.622,26.965 L24.953,26.750 L27.437,27.437 L26.750,24.953 L26.966,24.622 C27.801,23.336 28.242,21.842 28.242,20.303 C28.242,16.866 26.020,13.846 22.834,12.776 ZM12.334,12.750 L12.334,14.121 L10.576,14.121 L10.576,11.976 L12.641,10.087 C13.010,9.749 13.213,9.288 13.213,8.789 C13.213,7.820 12.424,7.031 11.455,7.031 C10.486,7.031 9.697,7.820 9.697,8.789 L7.939,8.789 C7.939,6.850 9.516,5.273 11.455,5.273 C13.394,5.273 14.971,6.850 14.971,8.789 C14.971,9.773 14.554,10.719 13.827,11.383 L12.334,12.750 Z"/>
</svg>
