<svg 
  xmlns="http://www.w3.org/2000/svg"
  xmlns:xlink="http://www.w3.org/1999/xlink"
  width="0.417in" height="0.417in">
  <path fill-rule="evenodd"  fill="rgb(249, 217, 1)"
  d="M22.196,30.000 L7.802,30.000 C3.427,30.000 0.000,26.413 0.000,21.832 L0.000,7.442 C0.000,3.060 3.208,-0.000 7.802,-0.000 L22.196,-0.000 C26.791,-0.000 30.000,3.061 30.000,7.442 L30.000,21.832 C30.000,26.413 26.572,30.000 22.196,30.000 ZM28.064,7.442 C28.064,4.096 25.761,1.935 22.196,1.935 L7.802,1.935 C4.238,1.935 1.936,4.096 1.936,7.442 L1.936,21.832 C1.936,25.386 4.457,28.065 7.802,28.065 L22.196,28.065 C25.543,28.065 28.064,25.385 28.064,21.832 L28.064,7.442 ZM25.323,14.074 L25.323,20.156 C25.323,22.482 23.105,25.323 20.517,25.323 L9.479,25.323 C6.893,25.323 4.677,22.482 4.677,20.156 L4.677,9.119 C4.677,6.753 6.921,4.677 9.479,4.677 L18.842,4.677 C18.848,4.677 18.854,4.673 18.860,4.673 C18.861,4.673 18.861,4.673 18.862,4.673 C18.869,4.673 18.874,4.677 18.881,4.677 L20.517,4.677 C23.078,4.677 25.323,6.753 25.323,9.119 L25.323,14.055 C25.323,14.058 25.325,14.061 25.325,14.064 C25.325,14.068 25.323,14.070 25.323,14.074 ZM9.479,23.387 L20.517,23.387 C21.831,23.387 23.387,21.636 23.387,20.156 L23.387,15.032 L20.875,15.032 C20.882,15.119 20.886,15.216 20.886,15.327 C20.884,18.518 18.353,20.923 14.998,20.923 C11.642,20.923 9.111,18.580 9.111,15.473 C9.111,15.297 9.120,15.154 9.136,15.032 L6.613,15.032 L6.613,20.156 C6.613,21.636 8.167,23.387 9.479,23.387 ZM6.613,9.119 L6.613,13.096 L10.442,13.096 C10.740,13.096 11.021,13.234 11.205,13.468 C11.388,13.702 11.453,14.008 11.382,14.296 C11.265,14.771 11.163,15.017 11.095,15.179 C11.081,15.215 11.066,15.242 11.057,15.276 C11.057,15.276 11.048,15.317 11.048,15.473 C11.048,17.542 12.673,18.987 14.999,18.987 C17.251,18.987 18.949,17.414 18.949,15.327 C18.949,15.259 18.949,15.211 18.944,15.173 C18.857,15.046 18.743,14.807 18.617,14.297 C18.545,14.008 18.611,13.702 18.794,13.468 C18.977,13.234 19.258,13.096 19.556,13.096 L23.387,13.096 L23.387,10.749 L18.876,10.758 C18.874,10.758 18.873,10.758 18.873,10.758 C18.340,10.758 17.906,10.327 17.905,9.793 L17.897,6.613 L9.479,6.613 C8.005,6.613 6.613,7.831 6.613,9.119 ZM20.517,6.613 L19.833,6.613 L19.839,8.821 L23.347,8.814 C23.150,7.646 21.875,6.613 20.517,6.613 ZM18.202,14.825 C18.202,16.592 16.764,18.027 14.998,18.027 C13.232,18.027 11.796,16.592 11.796,14.826 C11.796,14.152 12.005,13.506 12.401,12.957 C13.004,12.122 13.974,11.624 14.998,11.624 C16.022,11.624 16.993,12.122 17.595,12.956 C17.992,13.506 18.202,14.152 18.202,14.825 ZM16.026,14.089 C15.783,13.753 15.407,13.560 14.998,13.560 C14.589,13.560 14.213,13.754 13.970,14.090 C13.814,14.307 13.731,14.562 13.731,14.826 C13.731,15.524 14.299,16.092 14.998,16.092 C15.698,16.092 16.267,15.525 16.267,14.826 C16.267,14.563 16.184,14.308 16.026,14.089 Z"/>
</svg>