<?xml version="1.0" encoding="UTF-8"?>
<!DOCTYPE svg PUBLIC "-//W3C//DTD SVG 1.1//EN" "http://www.w3.org/Graphics/SVG/1.1/DTD/svg11.dtd">
<!-- Creator: CorelDRAW 2021 (64 Bit) -->
<svg xmlns="http://www.w3.org/2000/svg" xml:space="preserve" width="172mm" height="33mm" version="1.1" style="shape-rendering:geometricPrecision; text-rendering:geometricPrecision; image-rendering:optimizeQuality; fill-rule:evenodd; clip-rule:evenodd"
viewBox="0 0 17200 3300"
 xmlns:xlink="http://www.w3.org/1999/xlink"
 xmlns:xodm="http://www.corel.com/coreldraw/odm/2003">
 <defs>
  <style type="text/css">
   <![CDATA[
    .fil5 {fill:#444242}
    .fil4 {fill:#A80800}
    .fil3 {fill:#C50200}
    .fil2 {fill:#444141;fill-rule:nonzero}
    .fil1 {fill:url(#id0);fill-rule:nonzero}
    .fil0 {fill:url(#id1);fill-rule:nonzero}
   ]]>
  </style>
  <linearGradient id="id0" gradientUnits="userSpaceOnUse" x1="2199.03" y1="702.29" x2="2886.63" y2="1245.53">
   <stop offset="0" style="stop-opacity:1; stop-color:#444242"/>
   <stop offset="1" style="stop-opacity:1; stop-color:#211815"/>
  </linearGradient>
  <linearGradient id="id1" gradientUnits="userSpaceOnUse" x1="754.8" y1="703.3" x2="1441.81" y2="1247.44">
   <stop offset="0" style="stop-opacity:1; stop-color:#A80800"/>
   <stop offset="1" style="stop-opacity:1; stop-color:#211815"/>
  </linearGradient>
 </defs>
 <g id="Camada_x0020_1">
  <metadata id="CorelCorpID_0Corel-Layer"/>
  <g id="_2214754543296">
   <polygon class="fil0" points="1649.22,572.78 1399.07,1016.07 1029.83,1506.28 97.87,98.9 1349.92,88.52 "/>
   <polygon class="fil1" points="3093.91,570.43 2854.71,1007.17 2474.52,1503.94 1542.26,98.9 2794.31,88.52 "/>
   <path class="fil2" d="M4783.1 2934.33c-8.91,-49.02 -11.89,-109.92 -11.89,-172.32l0 -268.87c0,-144.1 -53.48,-294.13 -273.32,-294.13 -90.62,0 -176.78,25.25 -236.2,63.87l29.71 86.16c50.51,-32.68 120.33,-53.48 187.17,-53.48 147.07,0 163.4,106.96 163.4,166.38l0 14.86c-277.78,-1.49 -432.27,93.59 -432.27,267.39 0,103.98 74.27,206.49 219.85,206.49 102.5,0 179.75,-50.51 219.85,-106.97l4.46 0 10.4 90.62 118.84 0zm-138.15 -242.13c0,13.37 -2.98,28.22 -7.43,41.59 -20.79,60.9 -80.22,120.32 -173.8,120.32 -66.85,0 -123.29,-40.1 -123.29,-124.78 0,-139.64 161.91,-164.89 304.52,-161.92l0 124.79zm1745.46 -93.59c1.48,-13.38 4.46,-34.17 4.46,-60.9 0,-132.21 -62.39,-338.7 -297.11,-338.7 -209.44,0 -337.2,170.84 -337.2,387.71 0,216.89 132.21,362.47 353.55,362.47 114.38,0 193.11,-23.77 239.16,-44.57l-22.28 -93.59c-49.02,20.8 -105.47,37.14 -199.05,37.14 -130.73,0 -243.62,-72.79 -246.59,-249.56l505.06 0zm-503.58 -93.59c10.39,-90.61 68.33,-212.42 200.54,-212.42 147.06,0 182.71,129.23 181.23,212.42l-381.77 0zm161.92 -600.14l-141.13 212.43 98.05 0 86.16 -141.13 2.97 0 86.15 141.13 99.53 0 -142.61 -212.43 -89.12 0zm508.03 1029.45l130.73 0 0 -432.28c0,-22.28 2.97,-44.56 8.91,-60.9 22.28,-72.79 89.14,-133.7 175.29,-133.7 123.3,0 166.38,96.56 166.38,212.43l0 414.45 130.73 0 0 -429.31c0,-246.59 -154.5,-306.01 -254.03,-306.01 -118.83,0 -202.02,66.85 -237.68,135.18l-2.96 0 -7.43 -118.84 -115.87 0c4.45,59.42 5.93,120.33 5.93,194.6l0 524.38zm1314.67 -124.78c-37.14,16.34 -86.15,35.65 -160.44,35.65 -142.6,0 -249.56,-102.49 -249.56,-268.87 0,-150.04 89.13,-271.85 254.02,-271.85 71.31,0 120.33,16.34 151.53,34.16l29.71 -101.01c-35.65,-17.83 -103.99,-37.13 -181.24,-37.13 -234.7,0 -386.22,160.43 -386.22,381.77 0,219.85 141.12,366.92 358,366.92 96.56,0 172.32,-23.77 206.48,-41.59l-22.28 -98.05zm306.01 124.78l0 -718.98 -130.72 0 0 718.98 130.72 0zm-65.36 -1002.71c-47.53,0 -81.7,35.65 -81.7,81.7 0,44.57 32.68,80.22 78.73,80.22 52,0 84.68,-35.65 83.19,-80.22 0,-46.05 -31.19,-81.7 -80.22,-81.7zm799.21 1002.71c-8.92,-49.02 -11.89,-109.92 -11.89,-172.32l0 -268.87c0,-144.1 -53.48,-294.13 -273.33,-294.13 -90.62,0 -176.78,25.25 -236.2,63.87l29.72 86.16c50.51,-32.68 120.32,-53.48 187.17,-53.48 147.06,0 163.4,106.96 163.4,166.38l0 14.86c-277.79,-1.49 -432.27,93.59 -432.27,267.39 0,103.98 74.27,206.49 219.84,206.49 102.51,0 179.75,-50.51 219.86,-106.97l4.46 0 10.4 90.62 118.84 0zm-138.16 -242.13c0,13.37 -2.97,28.22 -7.43,41.59 -20.79,60.9 -80.21,120.32 -173.79,120.32 -66.86,0 -123.3,-40.1 -123.3,-124.78 0,-139.64 161.92,-164.89 304.52,-161.92l0 124.79zm1229.99 -93.59c1.49,-13.38 4.46,-34.17 4.46,-60.9 0,-132.21 -62.39,-338.7 -297.1,-338.7 -209.45,0 -337.2,170.84 -337.2,387.71 0,216.89 132.2,362.47 353.54,362.47 114.38,0 193.11,-23.77 239.16,-44.57l-22.27 -93.59c-49.03,20.8 -105.48,37.14 -199.06,37.14 -130.72,0 -243.62,-72.79 -246.59,-249.56l505.06 0zm-503.58 -93.59c10.4,-90.61 68.33,-212.42 200.55,-212.42 147.06,0 182.71,129.23 181.22,212.42l-381.77 0zm647.68 -20.79l0 96.56 366.91 0 0 -96.56 -366.91 0zm1036.87 325.32c-37.14,16.34 -86.15,35.65 -160.44,35.65 -142.6,0 -249.56,-102.49 -249.56,-268.87 0,-150.04 89.13,-271.85 254.02,-271.85 71.31,0 120.33,16.34 151.53,34.16l29.71 -101.01c-35.66,-17.83 -103.99,-37.13 -181.24,-37.13 -234.7,0 -386.22,160.43 -386.22,381.77 0,219.85 141.11,366.92 358,366.92 96.56,0 172.32,-23.77 206.48,-41.59l-22.28 -98.05zm470.9 -610.54c-199.05,0 -356.51,141.12 -356.51,381.78 0,227.27 150.03,369.89 344.63,369.89 173.8,0 358.01,-115.88 358.01,-381.78 0,-219.86 -139.64,-369.89 -346.13,-369.89zm-2.97 98.04c154.49,0 215.4,154.5 215.4,276.31 0,161.92 -93.59,279.27 -218.37,279.27 -127.75,0 -218.37,-118.84 -218.37,-276.3 0,-136.67 66.85,-279.28 221.34,-279.28zm513.98 637.28l127.75 0 0 -433.76c0,-22.29 2.97,-44.57 10.4,-63.88 20.8,-65.36 80.22,-130.73 161.92,-130.73 99.53,0 150.03,83.19 150.03,197.57l0 430.8 127.76 0 0 -444.16c0,-23.77 4.45,-47.54 10.4,-65.37 22.28,-63.87 80.21,-118.84 154.49,-118.84 105.47,0 155.98,83.19 155.98,221.35l0 407.02 127.74 0 0 -423.37c0,-249.56 -141.11,-311.95 -236.19,-311.95 -68.33,0 -115.86,17.82 -158.94,50.51 -29.71,22.28 -57.94,53.47 -80.22,93.58l-2.97 0c-31.2,-84.67 -105.47,-144.09 -203.51,-144.09 -118.84,0 -185.69,63.87 -225.8,132.21l-4.45 0 -5.95 -115.87 -114.38 0c4.45,59.42 5.94,120.33 5.94,194.6l0 524.38zm1238.9 0l127.75 0 0 -433.76c0,-22.29 2.98,-44.57 10.41,-63.88 20.8,-65.36 80.21,-130.73 161.91,-130.73 99.54,0 150.04,83.19 150.04,197.57l0 430.8 127.75 0 0 -444.16c0,-23.77 4.46,-47.54 10.4,-65.37 22.29,-63.87 80.22,-118.84 154.49,-118.84 105.48,0 155.98,83.19 155.98,221.35l0 407.02 127.75 0 0 -423.37c0,-249.56 -141.12,-311.95 -236.19,-311.95 -68.33,0 -115.87,17.82 -158.95,50.51 -29.71,22.28 -57.94,53.47 -80.22,93.58l-2.97 0c-31.19,-84.67 -105.46,-144.09 -203.51,-144.09 -118.84,0 -185.68,63.87 -225.8,132.21l-4.45 0 -5.94 -115.87 -114.38 0c4.45,59.42 5.93,120.33 5.93,194.6l0 524.38zm1816.76 -335.72c1.49,-13.38 4.46,-34.17 4.46,-60.9 0,-132.21 -62.38,-338.7 -297.1,-338.7 -209.45,0 -337.2,170.84 -337.2,387.71 0,216.89 132.2,362.47 353.54,362.47 114.39,0 193.12,-23.77 239.17,-44.57l-22.28 -93.59c-49.02,20.8 -105.48,37.14 -199.06,37.14 -130.72,0 -243.62,-72.79 -246.59,-249.56l505.06 0zm-503.57 -93.59c10.39,-90.61 68.33,-212.42 200.54,-212.42 147.06,0 182.71,129.23 181.22,212.42l-381.76 0zm669.95 429.31l129.24 0 0 -383.26c0,-22.28 2.97,-43.08 5.94,-60.9 17.83,-98.05 83.19,-167.86 175.29,-167.86 17.82,0 31.2,1.48 44.57,4.46l0 -123.3c-11.89,-2.97 -22.29,-4.46 -37.14,-4.46 -87.64,0 -166.37,60.9 -199.06,157.46l-5.94 0 -4.45 -141.12 -114.38 0c4.44,66.85 5.93,139.64 5.93,224.31l0 494.67zm961.12 -124.78c-37.14,16.34 -86.15,35.65 -160.43,35.65 -142.61,0 -249.57,-102.49 -249.57,-268.87 0,-150.04 89.13,-271.85 254.02,-271.85 71.31,0 120.33,16.34 151.53,34.16l29.71 -101.01c-35.65,-17.83 -103.99,-37.13 -181.24,-37.13 -234.7,0 -386.22,160.43 -386.22,381.77 0,219.85 141.12,366.92 358,366.92 96.56,0 172.32,-23.77 206.49,-41.59l-22.29 -98.05zm744.23 -210.94c1.49,-13.38 4.46,-34.17 4.46,-60.9 0,-132.21 -62.39,-338.7 -297.1,-338.7 -209.45,0 -337.2,170.84 -337.2,387.71 0,216.89 132.2,362.47 353.54,362.47 114.38,0 193.11,-23.77 239.17,-44.57l-22.28 -93.59c-49.03,20.8 -105.48,37.14 -199.06,37.14 -130.72,0 -243.62,-72.79 -246.59,-249.56l505.06 0zm-503.57 -93.59c10.39,-90.61 68.33,-212.42 200.54,-212.42 147.06,0 182.71,129.23 181.22,212.42l-381.76 0zm-11102.61 -289.67l-5.95 108.44 -2.97 0c-31.19,-59.42 -99.52,-124.78 -224.3,-124.78 -164.89,0 -323.84,138.15 -323.84,381.78 0,199.05 127.75,350.57 306.01,350.57 111.42,0 188.66,-53.48 228.77,-120.33l2.97 0 0 80.22c0,181.24 -98.05,251.05 -231.74,251.05 -89.13,0 -163.41,-26.73 -210.94,-56.45l-32.68 99.53c57.94,38.62 153,59.42 239.16,59.42 90.62,0 191.64,-20.8 261.45,-86.15 69.82,-62.4 102.5,-163.41 102.5,-328.3l0 -417.42c0,-87.65 2.97,-145.59 5.94,-197.58l-114.38 0zm-20.8 412.96c0,22.29 -2.97,47.54 -10.4,69.83 -28.22,83.19 -101.01,133.69 -181.23,133.69 -141.12,0 -212.43,-117.36 -212.43,-258.47 0,-166.38 89.13,-271.85 213.92,-271.85 95.07,0 158.94,62.39 182.72,138.15 5.94,17.83 7.42,37.14 7.42,59.42l0 129.23z"/>
   <path class="fil3" d="M6839.78 1863.77l483.1 0 157.78 -328.12 883.81 0 157.78 328.12 483.09 0 -818.35 -1806.57 -528.85 0 -818.36 1806.57zm7897.65 0l-497.24 0 0 -1155.09 -635.15 1155.09 -116.7 0 -116.71 0 -635.14 -1155.09 0 1155.09 -497.25 0 0 -1806.57 497.25 0c104.24,0 189.07,61.66 258.76,167.57l493.09 867.02 493.08 -867.02c69.7,-105.91 154.52,-167.57 258.77,-167.57l497.24 0 0 1806.57zm-8054.59 0l-497.24 0 0 -1155.09 -635.15 1155.09 -116.7 0 -116.71 0 -635.15 -1155.09 0 1155.09 -497.24 0 0 -1806.57 497.24 0c104.25,0 189.08,61.66 258.77,167.57l493.09 867.02 493.08 -867.02c69.7,-105.91 154.52,-167.57 258.77,-167.57l497.24 0 0 1806.57zm4791.91 -1806.57l493.87 0 0 1806.57 -493.87 0 0 -1806.57zm-2415.14 1806.57l640.4 0 492.84 -634.49 492.83 634.49 640.4 0 -738.16 -945.4 672.53 -861.17 -574.77 0 -492.83 607.73 -492.84 -607.73 -574.77 0 672.51 861.17 -738.14 945.4zm5821.15 0l483.1 0 157.78 -328.12 883.81 0 157.78 328.12 483.09 0 -818.35 -1806.57 -528.85 0 -818.36 1806.57zm1077.01 -1229.21l-216.19 459.91 443.92 0 -227.73 -459.91zm-8040.98 0l-216.19 459.91 443.92 0 -227.73 -459.91z"/>
   <polygon class="fil4" points="2229.89,1503.94 1349.92,2919.35 97.87,2908.98 1649.52,570.43 "/>
   <polygon class="fil5" points="3674.29,1503.94 2794.31,2919.35 1542.26,2908.98 3093.91,570.43 "/>
  </g>
 </g>
</svg>
