<svg 
  xmlns="http://www.w3.org/2000/svg"
  xmlns:xlink="http://www.w3.org/1999/xlink"
  width="0.417in" height="0.417in">
  <path fill-rule="evenodd"  fill="rgb(249, 217, 1)"
  d="M21.895,30.000 L8.218,30.000 C3.917,30.000 0.000,26.083 0.000,21.781 L0.000,8.104 C0.000,3.787 3.840,-0.000 8.218,-0.000 L21.895,-0.000 C26.212,-0.000 30.000,3.787 30.000,8.104 L30.000,21.781 C30.000,26.159 26.212,30.000 21.895,30.000 ZM28.065,8.104 C28.065,4.876 25.124,1.935 21.895,1.935 L8.218,1.935 C4.930,1.935 1.936,4.876 1.936,8.104 L1.936,21.781 C1.936,25.011 4.989,28.065 8.218,28.065 L21.895,28.065 C25.124,28.065 28.065,25.069 28.065,21.781 L28.065,8.104 ZM23.413,20.935 C22.591,21.832 21.642,21.932 21.236,21.975 C21.218,21.977 21.111,21.990 21.094,21.991 C18.692,22.171 15.197,22.179 15.048,22.179 C14.855,22.177 10.538,22.134 9.142,21.994 C9.009,21.973 8.953,21.966 8.889,21.958 C8.377,21.895 7.425,21.776 6.645,20.923 C5.954,20.194 5.780,18.863 5.753,18.605 C5.745,18.529 5.613,17.087 5.613,15.615 L5.613,14.263 C5.613,12.793 5.748,11.347 5.754,11.286 C5.788,11.002 5.980,9.678 6.676,8.943 C7.587,7.950 8.624,7.823 8.964,7.783 C11.395,7.599 14.989,7.486 15.025,7.484 C15.035,7.484 15.045,7.484 15.055,7.484 L15.064,7.484 C15.130,7.486 18.729,7.599 21.116,7.779 C21.619,7.838 22.602,7.955 23.469,8.898 C24.177,9.647 24.292,11.026 24.308,11.295 C24.311,11.359 24.388,12.813 24.388,14.263 L24.388,15.615 C24.388,17.068 24.312,18.494 24.308,18.554 C24.279,18.855 24.117,20.190 23.413,20.935 ZM22.453,14.263 C22.453,12.864 22.376,11.415 22.375,11.400 C22.346,10.938 22.189,10.360 22.053,10.215 C21.662,9.790 21.262,9.742 20.971,9.707 C18.731,9.538 15.384,9.429 15.059,9.419 C14.734,9.430 11.391,9.538 9.153,9.707 C8.887,9.740 8.480,9.838 8.091,10.261 C7.912,10.453 7.732,11.061 7.678,11.496 C7.678,11.496 7.548,12.892 7.548,14.263 L7.548,15.615 C7.548,16.997 7.677,18.396 7.678,18.410 C7.724,18.826 7.894,19.428 8.061,19.604 C8.371,19.942 8.773,19.992 9.128,20.036 C9.241,20.051 9.342,20.063 9.425,20.080 C10.646,20.199 15.014,20.242 15.057,20.242 C15.081,20.242 18.619,20.234 20.949,20.060 L21.032,20.050 C21.340,20.018 21.658,19.984 21.996,19.615 C22.166,19.434 22.338,18.822 22.379,18.406 C22.378,18.406 22.453,17.000 22.453,15.615 L22.453,14.263 ZM18.372,15.613 L13.753,18.106 C13.609,18.184 13.451,18.223 13.293,18.223 C13.122,18.223 12.950,18.177 12.797,18.086 C12.505,17.911 12.325,17.595 12.325,17.255 L12.323,12.247 C12.323,11.905 12.503,11.589 12.796,11.415 C13.091,11.239 13.454,11.234 13.753,11.396 L18.374,13.911 C18.686,14.081 18.880,14.408 18.880,14.763 C18.880,15.118 18.684,15.444 18.372,15.613 ZM14.260,13.874 L14.261,15.633 L15.882,14.757 L14.260,13.874 Z"/>
</svg>