<svg 
 xmlns="http://www.w3.org/2000/svg"
 xmlns:xlink="http://www.w3.org/1999/xlink"
 width="24px" height="23px">
<path fill-rule="evenodd"  fill="rgb(255, 255, 255)"
 d="M23.985,4.103 L22.643,9.631 C22.341,10.871 21.277,11.789 19.990,11.920 L8.234,13.108 L8.028,13.597 C7.956,13.768 7.920,13.952 7.921,14.138 C7.927,14.905 8.561,15.523 9.339,15.517 L20.201,15.517 C20.496,15.517 20.736,15.754 20.736,16.045 C20.736,16.336 20.496,16.573 20.201,16.573 L9.339,16.573 C9.011,16.574 8.686,16.511 8.383,16.388 C7.119,15.873 6.517,14.445 7.039,13.197 L7.301,12.571 L4.393,3.900 L3.762,2.021 C3.571,1.446 3.028,1.057 2.415,1.056 L0.535,1.056 C0.240,1.056 -0.000,0.819 -0.000,0.528 C-0.000,0.236 0.240,-0.000 0.535,-0.000 L2.415,-0.000 C3.490,0.001 4.442,0.682 4.778,1.689 L5.277,3.181 L23.472,3.452 C23.512,3.453 23.551,3.458 23.589,3.467 C23.876,3.534 24.053,3.819 23.985,4.103 ZM5.633,4.242 L8.252,12.046 L19.881,10.871 C20.716,10.786 21.406,10.191 21.602,9.385 L22.788,4.498 L5.633,4.242 ZM7.648,18.091 C9.022,18.093 10.135,19.191 10.136,20.546 C10.136,21.901 9.022,23.000 7.648,23.000 C6.274,23.000 5.160,21.901 5.160,20.546 C5.160,19.190 6.274,18.091 7.648,18.091 ZM7.648,21.944 C8.431,21.943 9.065,21.317 9.066,20.545 C9.066,19.773 8.431,19.147 7.648,19.147 C6.865,19.147 6.230,19.773 6.230,20.545 C6.230,21.318 6.865,21.944 7.648,21.944 ZM18.248,18.091 C19.622,18.093 20.735,19.191 20.736,20.546 C20.736,21.901 19.622,23.000 18.248,23.000 C16.874,23.000 15.760,21.901 15.760,20.546 C15.760,19.190 16.874,18.091 18.248,18.091 ZM18.248,21.944 C19.031,21.943 19.665,21.317 19.666,20.545 C19.666,19.773 19.031,19.147 18.248,19.147 C17.465,19.147 16.830,19.773 16.830,20.545 C16.830,21.318 17.465,21.944 18.248,21.944 Z"/>
</svg>