<svg
  xmlns="http://www.w3.org/2000/svg"
  xmlns:xlink="http://www.w3.org/1999/xlink"
  width="0.417in" height="0.417in">
  <path fill-rule="evenodd"  fill="rgb(249, 217, 1)"
  d="M22.185,30.000 L7.811,30.000 C3.284,30.000 -0.000,26.713 -0.000,22.187 L-0.000,7.814 C-0.000,3.286 3.286,0.000 7.811,0.000 L22.185,0.000 C26.714,0.000 30.000,3.286 30.000,7.814 L30.000,22.187 C30.000,26.713 26.714,30.000 22.185,30.000 ZM7.811,1.936 C4.352,1.936 1.935,4.353 1.935,7.814 L1.935,22.187 C1.935,25.648 4.352,28.064 7.811,28.064 L22.185,28.064 C25.647,28.064 28.065,25.647 28.065,22.187 L28.065,7.814 C28.065,4.353 25.647,1.936 22.185,1.936 L7.811,1.936 ZM15.936,25.323 L12.194,25.323 C11.659,25.323 11.226,24.889 11.226,24.355 L11.226,15.968 C10.706,15.950 10.290,15.524 10.290,15.000 L10.290,11.258 C10.290,10.734 10.706,10.307 11.226,10.290 L11.226,9.781 C11.226,7.598 12.468,5.048 15.972,5.048 L18.745,5.059 C19.278,5.061 19.709,5.494 19.709,6.027 L19.709,9.387 C19.709,9.798 19.452,10.151 19.090,10.290 L19.192,10.290 C19.463,10.290 19.723,10.404 19.906,10.605 C20.088,10.805 20.179,11.072 20.156,11.343 L19.827,15.085 C19.785,15.585 19.366,15.968 18.864,15.968 L16.904,15.968 L16.904,24.355 C16.904,24.889 16.470,25.323 15.936,25.323 ZM13.161,23.387 L14.968,23.387 L14.968,15.000 C14.968,14.466 15.402,14.032 15.936,14.032 L17.978,14.032 L18.136,12.225 L15.936,12.225 C15.402,12.225 14.968,11.792 14.968,11.258 L14.968,9.970 C14.968,9.709 15.056,8.412 16.803,8.412 L17.773,8.417 L17.773,6.992 L15.968,6.984 C13.527,6.984 13.161,8.737 13.161,9.782 L13.161,11.258 C13.161,11.781 12.745,12.208 12.225,12.225 L12.225,14.032 C12.745,14.050 13.161,14.476 13.161,15.000 L13.161,23.387 Z"/>
</svg>