<svg 
 xmlns="http://www.w3.org/2000/svg"
 xmlns:xlink="http://www.w3.org/1999/xlink"
 width="151px" height="21px">
<path fill-rule="evenodd"  fill="rgb(249, 217, 1)"
 d="M150.017,16.702 L150.017,20.693 L134.802,20.693 L134.802,0.299 L149.874,0.299 L149.874,4.290 L139.149,4.290 L139.149,8.428 L148.587,8.428 L148.587,12.419 L139.149,12.419 L139.149,16.702 L150.017,16.702 ZM130.612,12.769 C129.878,13.371 129.020,13.822 128.038,14.124 C127.056,14.425 126.003,14.575 124.878,14.575 L121.532,14.575 L121.532,20.693 L117.128,20.693 L117.128,0.299 L125.307,0.299 C126.508,0.299 127.581,0.469 128.524,0.809 C129.468,1.149 130.269,1.630 130.927,2.251 C131.584,2.873 132.090,3.616 132.442,4.480 C132.795,5.344 132.972,6.301 132.972,7.350 L132.972,7.408 C132.972,8.593 132.762,9.632 132.342,10.525 C131.923,11.419 131.346,12.167 130.612,12.769 ZM128.510,7.437 C128.510,6.427 128.191,5.660 127.552,5.136 C126.913,4.611 126.041,4.349 124.935,4.349 L121.532,4.349 L121.532,10.584 L125.021,10.584 C126.126,10.584 126.985,10.288 127.595,9.695 C128.205,9.103 128.510,8.369 128.510,7.495 L128.510,7.437 ZM109.034,16.119 L100.569,16.119 L98.739,20.693 L94.735,20.693 L94.248,20.693 L89.444,20.693 L83.238,12.011 L80.921,14.458 L80.921,20.693 L76.517,20.693 L76.517,0.299 L80.921,0.299 L80.921,9.214 L89.043,0.299 L94.363,0.299 L86.212,8.952 L94.426,20.268 L102.828,0.153 L106.889,0.153 L115.469,20.693 L110.865,20.693 L109.034,16.119 ZM104.801,5.543 L102.142,12.157 L107.461,12.157 L104.801,5.543 ZM72.069,19.339 C71.425,19.873 70.656,20.281 69.763,20.562 C68.870,20.843 67.880,20.985 66.794,20.985 C65.268,20.985 63.771,20.717 62.303,20.184 C60.835,19.649 59.501,18.829 58.299,17.722 L60.902,14.546 C61.817,15.303 62.756,15.906 63.719,16.352 C64.681,16.799 65.735,17.022 66.879,17.022 C67.794,17.022 68.504,16.852 69.010,16.512 C69.515,16.173 69.768,15.702 69.768,15.099 L69.768,15.041 C69.768,14.750 69.715,14.493 69.610,14.269 C69.504,14.046 69.304,13.837 69.008,13.643 C68.711,13.449 68.300,13.254 67.775,13.060 C67.249,12.866 66.565,12.662 65.725,12.448 C64.711,12.196 63.794,11.914 62.971,11.603 C62.149,11.293 61.452,10.909 60.878,10.452 C60.305,9.996 59.860,9.428 59.545,8.748 C59.229,8.068 59.072,7.224 59.072,6.214 L59.072,6.155 C59.072,5.223 59.242,4.383 59.583,3.635 C59.924,2.887 60.402,2.241 61.018,1.697 C61.634,1.154 62.368,0.736 63.223,0.445 C64.078,0.153 65.020,0.008 66.050,0.008 C67.518,0.008 68.867,0.231 70.097,0.678 C71.326,1.125 72.456,1.766 73.486,2.601 L71.198,5.980 C70.301,5.359 69.425,4.869 68.567,4.509 C67.708,4.150 66.851,3.970 65.993,3.970 C65.135,3.970 64.491,4.140 64.062,4.480 C63.633,4.820 63.419,5.242 63.419,5.747 L63.419,5.805 C63.419,6.136 63.481,6.422 63.605,6.665 C63.729,6.908 63.954,7.127 64.279,7.320 C64.604,7.515 65.048,7.699 65.612,7.874 C66.176,8.049 66.888,8.253 67.749,8.486 C68.762,8.758 69.665,9.064 70.459,9.404 C71.252,9.744 71.921,10.152 72.466,10.627 C73.011,11.104 73.422,11.662 73.699,12.302 C73.976,12.944 74.115,13.711 74.115,14.604 L74.115,14.662 C74.115,15.673 73.935,16.571 73.575,17.357 C73.215,18.144 72.713,18.805 72.069,19.339 ZM51.550,16.119 L43.085,16.119 L41.255,20.693 L36.765,20.693 L45.344,0.153 L49.405,0.153 L57.985,20.693 L53.381,20.693 L51.550,16.119 ZM47.318,5.543 L44.658,12.157 L49.977,12.157 L47.318,5.543 ZM31.388,20.693 L27.098,14.167 L27.041,14.167 L23.638,14.167 L23.638,20.693 L19.233,20.693 L19.233,0.299 L28.385,0.299 C30.921,0.299 32.865,0.989 34.219,2.368 C35.363,3.533 35.935,5.087 35.935,7.029 L35.935,7.087 C35.935,8.739 35.539,10.084 34.749,11.123 C33.957,12.162 32.923,12.925 31.645,13.410 L36.536,20.693 L31.388,20.693 ZM31.474,7.262 C31.474,6.291 31.169,5.563 30.559,5.077 C29.948,4.592 29.100,4.349 28.013,4.349 L23.638,4.349 L23.638,10.205 L28.099,10.205 C29.186,10.205 30.020,9.943 30.601,9.418 C31.183,8.894 31.474,8.195 31.474,7.320 L31.474,7.262 ZM14.961,19.295 C14.304,19.761 13.515,20.111 12.592,20.344 C11.668,20.577 10.645,20.693 9.523,20.693 L0.015,20.693 L0.015,0.299 L9.293,0.299 C11.596,0.299 13.337,0.901 14.518,2.105 C15.431,3.038 15.888,4.194 15.888,5.572 L15.888,5.631 C15.888,6.214 15.817,6.728 15.674,7.175 C15.532,7.622 15.343,8.025 15.106,8.384 C14.869,8.744 14.595,9.059 14.282,9.331 C13.969,9.603 13.633,9.836 13.273,10.030 C14.431,10.477 15.342,11.084 16.007,11.851 C16.671,12.618 17.003,13.682 17.003,15.041 L17.003,15.099 C17.003,16.032 16.827,16.847 16.475,17.547 C16.123,18.246 15.618,18.829 14.961,19.295 ZM11.541,6.330 C11.541,5.650 11.293,5.131 10.797,4.771 C10.301,4.412 9.586,4.232 8.652,4.232 L4.305,4.232 L4.305,8.544 L8.366,8.544 C9.339,8.544 10.111,8.374 10.683,8.034 C11.255,7.695 11.541,7.146 11.541,6.388 L11.541,6.330 ZM12.656,14.488 C12.656,13.808 12.399,13.269 11.884,12.871 C11.369,12.473 10.540,12.273 9.396,12.273 L4.305,12.273 L4.305,16.760 L9.539,16.760 C10.511,16.760 11.273,16.581 11.827,16.221 C12.379,15.862 12.656,15.303 12.656,14.546 L12.656,14.488 Z"/>
</svg>